# xmcd
#
# Track frame offsets: 
#        150
#        16294
#        30571
#        48061
#        68316
#        80984
#        96837
#        110263
#        127737
#        143925
#        163632
#        178637
#        193266
#        207823
#        221809
#        237068
#        248677
#        268207
#        285091
#        302635
#        316995
#
# Disc length: 4387 seconds
#
# Revision: 1
# Processed by: cddbd v1.5.2PL0 Copyright (c) Steve Scherf et al.
# Submitted via: ExactAudioCopy v0.99pb5
#
DISCID=1b112115
DTITLE=Colin Buchanan - Bourke To Beaconsfield - Greatest Hits
DYEAR=2006
DGENRE=Country
TTITLE0=Galahs In The Gidgee
TTITLE1=Come What May
TTITLE2=Uncle Viv
TTITLE3=She Waits
TTITLE4=The Local District Show
TTITLE5=A Drovers Wife
TTITLE6=Silver Bullet
TTITLE7=North Bourke Bridge
TTITLE8=Paradise
TTITLE9=The Measure Of A Man
TTITLE10=Tough Job (Duet with Lee Kernaghan)
TTITLE11=That Old Caravan
TTITLE12=Edge Of The Kimberley
TTITLE13=Rocko
TTITLE14=Land Of The Getaway
TTITLE15=Doo Wah Didjeri
TTITLE16=The Bishop Of Burrill
TTITLE17=House No 163
TTITLE18=Missin' Slim (Duet with Lee Kernaghan)
TTITLE19=Beaconsfield
TTITLE20=Goodbye Crocodile Hunter
EXTD=
EXTT0=
EXTT1=
EXTT2=
EXTT3=
EXTT4=
EXTT5=
EXTT6=
EXTT7=
EXTT8=
EXTT9=
EXTT10=
EXTT11=
EXTT12=
EXTT13=
EXTT14=
EXTT15=
EXTT16=
EXTT17=
EXTT18=
EXTT19=
EXTT20=
PLAYORDER=
